<?xml version="1.0" encoding="UTF-8"?>
<svg width="16px" height="16px" viewBox="0 0 16 16" version="1.1" xmlns="http://www.w3.org/2000/svg" xmlns:xlink="http://www.w3.org/1999/xlink">
    <title>menu</title>
    <g id="全局功能" stroke="none" stroke-width="1" fill="none" fill-rule="evenodd">
        <g id="角色管理" transform="translate(-989.000000, -359.000000)" fill="#000000" fill-rule="nonzero">
            <g id="编组-12" transform="translate(890.000000, 0.000000)">
                <g id="编组-18" transform="translate(64.000000, 348.000000)">
                    <g id="menu" transform="translate(35.000000, 11.000000)">
                        <rect id="矩形" fill-opacity="0.85" opacity="0" x="0" y="0" width="16" height="16"></rect>
                        <path d="M14.125,2.5 L1.875,2.5 C1.80625,2.5 1.75,2.55625 1.75,2.625 L1.75,3.625 C1.75,3.69375 1.80625,3.75 1.875,3.75 L14.125,3.75 C14.19375,3.75 14.25,3.69375 14.25,3.625 L14.25,2.625 C14.25,2.55625 14.19375,2.5 14.125,2.5 Z M14.125,12.25 L1.875,12.25 C1.80625,12.25 1.75,12.30625 1.75,12.375 L1.75,13.375 C1.75,13.44375 1.80625,13.5 1.875,13.5 L14.125,13.5 C14.19375,13.5 14.25,13.44375 14.25,13.375 L14.25,12.375 C14.25,12.30625 14.19375,12.25 14.125,12.25 Z M14.125,7.375 L1.875,7.375 C1.80625,7.375 1.75,7.43125 1.75,7.5 L1.75,8.5 C1.75,8.56875 1.80625,8.625 1.875,8.625 L14.125,8.625 C14.19375,8.625 14.25,8.56875 14.25,8.5 L14.25,7.5 C14.25,7.43125 14.19375,7.375 14.125,7.375 Z" id="形状" fill-opacity="0.65"></path>
                    </g>
                </g>
            </g>
        </g>
    </g>
</svg>